<svg preserveAspectRatio="xMidYMin slice" viewBox="0 0 1047.1 3.7" xmlns="http://www.w3.org/2000/svg"><path d="m1047.1 0c-490.1 0-1038.2 0-1047.1 0v1.6s.6-1.5 2.7-.3c1.2.7 3.4 2.8 5.6 2.2.9-.2 1.5-1.9 1.5-1.9s.6-1.5 2.7-.3c1.3.7 3.5 2.8 5.7 2.2.9-.2 1.5-1.9 1.5-1.9s.6-1.5 2.7-.3c1.2.7 3.5 2.8 5.6 2.2.9-.2 1.5-1.9 1.5-1.9s.6-1.5 2.7-.3c1.2.7 3.5 2.8 5.6 2.2.9-.2 1.5-1.9 1.5-1.9s.6-1.5 2.7-.3c1.2.7 3.5 2.8 5.6 2.2.9-.2 1.5-1.9 1.5-1.9s.6-1.5 2.7-.3c1.2.7 3.5 2.8 5.6 2.2.9-.2 1.5-1.9 1.5-1.9s.6-1.5 2.7-.3c1.4.7 3.7 2.8 5.8 2.2.9-.2 1.6-1.9 1.6-1.9s.6-1.5 2.7-.3c1.2.7 3.5 2.8 5.6 2.2.9-.2 1.5-1.9 1.5-1.9s.6-1.5 2.7-.3c1.2.7 3.5 2.8 5.6 2.2.9-.2 1.5-1.9 1.5-1.9s.6-1.5 2.7-.3c1.3.7 3.5 2.8 5.7 2.2.9-.2 1.5-1.9 1.5-1.9s.6-1.5 2.7-.3c1.2.7 3.5 2.8 5.6 2.2.9-.2 1.5-1.9 1.5-1.9s.6-1.5 2.7-.3c1.2.7 3.5 2.8 5.6 2.2.9-.2 1.5-1.9 1.5-1.9s.6-1.5 2.7-.3c1.2.7 3.5 2.8 5.6 2.2.9-.2 1.5-1.9 1.5-1.9s.6-1.5 2.7-.3c1.2.7 3.5 2.8 5.6 2.2.9-.2 1.5-1.9 1.5-1.9s.6-1.5 2.7-.3c1.2.7 3.5 2.8 5.6 2.2.9-.2 1.5-1.9 1.5-1.9s.6-1.5 2.7-.3c1.2.7 3.5 2.8 5.6 2.2.9-.2 1.5-1.9 1.5-1.9s.6-1.5 2.7-.3c1.2.7 3.5 2.8 5.6 2.2.9-.2 1.5-1.9 1.5-1.9s.6-1.5 2.7-.3c1.2.7 3.5 2.8 5.6 2.2.9-.2 1.5-1.9 1.5-1.9s.6-1.5 2.7-.3c1.2.7 3.5 2.8 5.6 2.2.9-.2 1.5-1.9 1.5-1.9s.6-1.5 2.7-.3c1.2.7 3.5 2.8 5.6 2.2.9-.2 1.5-1.9 1.5-1.9s.6-1.5 2.7-.3c1.2.7 3.5 2.8 5.6 2.2.9-.2 1.5-1.9 1.5-1.9s.6-1.5 2.7-.3c1.2.7 3.5 2.8 5.6 2.2.9-.2 1.5-1.9 1.5-1.9s.6-1.5 2.7-.3c1.2.7 3.5 2.8 5.6 2.2.9-.2 1.5-1.9 1.5-1.9s.6-1.5 2.7-.3c1.2.7 3.5 2.8 5.6 2.2.9-.2 1.5-1.9 1.5-1.9s.6-1.5 2.7-.3c1.2.7 3.5 2.8 5.6 2.2.9-.2 1.5-1.9 1.5-1.9s.6-1.5 2.7-.3c1.2.7 3.5 2.8 5.6 2.2.9-.2 1.5-1.9 1.5-1.9s.6-1.5 2.7-.3c1.2.7 3.5 2.8 5.6 2.2.9-.2 1.5-1.9 1.5-1.9s.6-1.5 2.7-.3c1.2.7 3.5 2.8 5.6 2.2.9-.2 1.5-1.9 1.5-1.9s.6-1.5 2.7-.3c1.2.7 3.5 2.8 5.6 2.2.9-.2 1.5-1.9 1.5-1.9s.6-1.5 2.7-.3c1.2.7 3.5 2.8 5.6 2.2.9-.2 1.5-1.9 1.5-1.9s.6-1.5 2.7-.3c1.2.7 3.5 2.8 5.6 2.2.9-.2 1.5-1.9 1.5-1.9s.6-1.5 2.7-.3c1.2.7 3.5 2.8 5.6 2.2.9-.2 1.5-1.9 1.5-1.9s.6-1.5 2.7-.3c1.2.7 3.5 2.8 5.6 2.2.9-.2 1.5-1.9 1.5-1.9s.6-1.5 2.7-.3c1.2.7 3.5 2.8 5.6 2.2.9-.2 1.5-1.9 1.5-1.9s.6-1.5 2.7-.3c1.2.7 3.5 2.8 5.6 2.2.9-.2 1.5-1.9 1.5-1.9s.6-1.5 2.7-.3c1.2.7 3.5 2.8 5.6 2.2.9-.2 1.5-1.9 1.5-1.9s.6-1.5 2.7-.3c1.2.7 3.5 2.8 5.6 2.2.9-.2 1.5-1.9 1.5-1.9s.6-1.5 2.7-.3c1.2.7 3.5 2.8 5.6 2.2.9-.2 1.5-1.9 1.5-1.9s.6-1.5 2.7-.3c1.2.7 3.5 2.8 5.6 2.2.9-.2 1.5-1.9 1.5-1.9s.6-1.5 2.7-.3c1.2.7 3.5 2.8 5.6 2.2.9-.2 1.5-1.9 1.5-1.9s.6-1.5 2.7-.3c1.2.7 3.5 2.8 5.6 2.2.9-.2 1.5-1.9 1.5-1.9s.6-1.5 2.7-.3c1.2.7 3.5 2.8 5.6 2.2.9-.2 1.5-1.9 1.5-1.9s.6-1.5 2.7-.3c1.2.7 3.5 2.8 5.6 2.2.9-.2 1.5-1.9 1.5-1.9s.6-1.5 2.7-.3c1.2.7 3.5 2.8 5.6 2.2.9-.2 1.5-1.9 1.5-1.9s.6-1.5 2.7-.3c1.2.7 3.5 2.8 5.6 2.2.9-.2 1.5-1.9 1.5-1.9s.6-1.5 2.7-.3c1.2.7 3.5 2.8 5.6 2.2.9-.2 1.5-1.9 1.5-1.9s.6-1.5 2.7-.3c1.2.7 3.5 2.8 5.6 2.2.9-.2 1.5-1.9 1.5-1.9s.6-1.5 2.7-.3c1.2.7 3.5 2.8 5.6 2.2.9-.2 1.5-1.9 1.5-1.9s.6-1.5 2.7-.3c1.2.7 3.5 2.8 5.6 2.2.9-.2 1.5-1.9 1.5-1.9s.6-1.5 2.7-.3c1.2.7 3.5 2.8 5.6 2.2.9-.2 1.5-1.9 1.5-1.9s.6-1.5 2.7-.3c1.2.7 3.5 2.8 5.6 2.2.9-.2 1.5-1.9 1.5-1.9s.6-1.5 2.7-.3c1.2.7 3.5 2.8 5.6 2.2.9-.2 1.5-1.9 1.5-1.9s.6-1.5 2.7-.3c1.2.7 3.5 2.8 5.6 2.2.9-.2 1.5-1.9 1.5-1.9s.6-1.5 2.7-.3c1.2.7 3.5 2.8 5.6 2.2.9-.2 1.5-1.9 1.5-1.9s.6-1.5 2.7-.3c1.2.7 3.5 2.8 5.6 2.2.9-.2 1.5-1.9 1.5-1.9s.6-1.5 2.7-.3c1.2.7 3.5 2.8 5.6 2.2.9-.2 1.5-1.9 1.5-1.9s.6-1.5 2.7-.3c1.2.7 3.5 2.8 5.6 2.2.9-.2 1.5-1.9 1.5-1.9s.6-1.5 2.7-.3c1.2.7 3.5 2.8 5.6 2.2.9-.2 1.5-1.9 1.5-1.9s.6-1.5 2.7-.3c1.2.7 3.5 2.8 5.6 2.2.9-.2 1.5-1.9 1.5-1.9s.6-1.5 2.7-.3c1.2.7 3.5 2.8 5.6 2.2.9-.2 1.5-1.9 1.5-1.9s.6-1.5 2.7-.3c1.2.7 3.5 2.8 5.6 2.2.9-.2 1.5-1.9 1.5-1.9s.6-1.5 2.7-.3c1.2.7 3.5 2.8 5.6 2.2.9-.2 1.5-1.9 1.5-1.9s.6-1.5 2.7-.3c1.2.7 3.5 2.8 5.6 2.2.9-.2 1.5-1.9 1.5-1.9s.6-1.5 2.7-.3c1.2.7 3.5 2.8 5.6 2.2.9-.2 1.5-1.9 1.5-1.9s.6-1.5 2.7-.3c1.2.7 3.5 2.8 5.6 2.2.9-.2 1.5-1.9 1.5-1.9s.6-1.5 2.7-.3c1.2.7 3.5 2.8 5.6 2.2.9-.2 1.5-1.9 1.5-1.9s.6-1.5 2.7-.3c1.2.7 3.5 2.8 5.6 2.2.9-.2 1.5-1.9 1.5-1.9s.6-1.5 2.7-.3c1.2.7 3.5 2.8 5.6 2.2.9-.2 1.5-1.9 1.5-1.9s.6-1.5 2.7-.3c1.2.7 3.5 2.8 5.6 2.2.9-.2 1.5-1.9 1.5-1.9s.6-1.5 2.7-.3c1.2.7 3.5 2.8 5.6 2.2.9-.2 1.5-1.9 1.5-1.9s.6-1.5 2.7-.3c1.2.7 3.5 2.8 5.6 2.2.9-.2 1.5-1.9 1.5-1.9s.6-1.5 2.7-.3c1.2.7 3.5 2.8 5.6 2.2.9-.2 1.5-1.9 1.5-1.9s.6-1.5 2.7-.3c1.2.7 3.5 2.8 5.6 2.2.9-.2 1.5-1.9 1.5-1.9s.6-1.5 2.7-.3c1.2.7 3.5 2.8 5.6 2.2.9-.2 1.5-1.9 1.5-1.9s.6-1.5 2.7-.3c1.2.7 3.5 2.8 5.6 2.2.9-.2 1.5-1.9 1.5-1.9s.6-1.5 2.7-.3c1.2.7 3.5 2.8 5.6 2.2.9-.2 1.5-1.9 1.5-1.9s.6-1.5 2.7-.3c1.2.7 3.5 2.8 5.6 2.2.9-.2 1.5-1.9 1.5-1.9s.6-1.5 2.7-.3c1.2.7 3.5 2.8 5.6 2.2.9-.2 1.5-1.9 1.5-1.9s.6-1.5 2.7-.3c1.2.7 3.5 2.8 5.6 2.2.9-.2 1.5-1.9 1.5-1.9s.6-1.5 2.7-.3c1.2.7 3.5 2.8 5.6 2.2.9-.2 1.5-1.9 1.5-1.9s.6-1.5 2.7-.3c1.2.7 3.5 2.8 5.6 2.2.9-.2 1.5-1.9 1.5-1.9s.6-1.5 2.7-.3c1.2.7 3.5 2.8 5.6 2.2.9-.2 1.5-1.9 1.5-1.9s.6-1.5 2.7-.3c1.2.7 3.5 2.8 5.6 2.2.9-.2 1.5-1.9 1.5-1.9s.6-1.5 2.7-.3c1.2.7 3.5 2.8 5.6 2.2.9-.2 1.5-1.9 1.5-1.9s.6-1.5 2.7-.3c1.2.7 3.5 2.8 5.6 2.2.9-.2 1.5-1.9 1.5-1.9s.6-1.5 2.7-.3c1.2.7 3.5 2.8 5.6 2.2.9-.2 1.5-1.9 1.5-1.9s.6-1.5 2.7-.3c1.2.7 3.5 2.8 5.6 2.2.9-.2 1.5-1.9 1.5-1.9s.6-1.5 2.7-.3c1.2.7 3.5 2.8 5.6 2.2.9-.2 1.5-1.9 1.5-1.9s.6-1.5 2.7-.3c1.2.7 3.5 2.8 5.6 2.2.9-.2 1.5-1.9 1.5-1.9s.6-1.5 2.7-.3c1.2.7 3.5 2.8 5.6 2.2.9-.2 1.5-1.9 1.5-1.9s.6-1.5 2.7-.3c1.2.7 3.5 2.8 5.6 2.2.9-.2 1.5-1.9 1.5-1.9s.6-1.5 2.7-.3c1.2.7 3.5 2.8 5.6 2.2.9-.2 1.5-1.9 1.5-1.9s.6-1.5 2.7-.3c1.2.7 3.5 2.8 5.6 2.2.9-.2 1.5-1.9 1.5-1.9s.6-1.5 2.7-.3c1.2.7 3.5 2.8 5.6 2.2.9-.2 1.5-1.9 1.5-1.9s.6-1.5 2.7-.3c1.2.7 3.5 2.8 5.6 2.2.9-.2 1.5-1.9 1.5-1.9s.6-1.5 2.7-.3c1.2.7 3.5 2.8 5.6 2.2.9-.2 1.5-1.9 1.5-1.9s.6-1.5 2.7-.3c1.2.7 3.5 2.8 5.6 2.2.9-.2 1.5-1.9 1.5-1.9s.6-1.5 2.7-.3c1.2.7 3.5 2.8 5.6 2.2.9-.2 1.5-1.9 1.5-1.9s.6-1.5 2.7-.3c1.2.7 3.5 2.8 5.6 2.2.9-.2 1.5-1.9 1.5-1.9s.6-1.5 2.7-.3c1.2.7 3.5 2.8 5.6 2.2.9-.2 1.5-1.9 1.5-1.9s.6-1.5 2.7-.3c1.2.7 3.5 2.8 5.6 2.2.9-.2 1.5-1.9 1.5-1.9s.6-1.5 2.7-.3c1.2.7 3.5 2.8 5.6 2.2.9-.2 1.5-1.9 1.5-1.9s.6-1.5 2.7-.3c1.2.7 3.5 2.8 5.6 2.2.9-.2 1.5-1.9 1.5-1.9s.6-1.5 2.7-.3c1.2.7 3.5 2.8 5.6 2.2.9-.2 1.5-1.9 1.5-1.9s.6-1.5 2.7-.3c1.2.7 3.5 2.8 5.6 2.2.9-.2 1.5-1.9 1.5-1.9s.6-1.5 2.7-.3c1.2.7 3.5 2.8 5.6 2.2.9-.2 1.5-1.9 1.5-1.9s.6-1.5 2.6-.4v-1.2zm-1044.4 1.4c.1 0 .1.1.1.1 0-.1 0-.1-.1-.1z"/></svg>